<mxfile host="drawio-plugin" modified="2024-09-20T10:02:43.254Z" agent="5.0 (Windows NT 10.0; Win64; x64) AppleWebKit/537.36 (KHTML, like Gecko) Chrome/122.0.0.0 Safari/537.36" etag="srFqa02GBALmabVkmBkB" version="15.5.4" type="embed"><diagram id="h-H0YLA1feg1Qz706Cnn" name="Spaces"><mxGraphModel dx="666" dy="483" grid="1" gridSize="10" guides="1" tooltips="1" connect="1" arrows="1" fold="1" page="1" pageScale="1" pageWidth="850" pageHeight="1100" math="0" shadow="0"><root><mxCell id="0"/><mxCell id="1" parent="0"/><mxCell id="7" style="edgeStyle=orthogonalEdgeStyle;rounded=0;orthogonalLoop=1;jettySize=auto;html=1;" parent="1" source="3" target="5" edge="1"><mxGeometry relative="1" as="geometry"/></mxCell><mxCell id="8" style="edgeStyle=orthogonalEdgeStyle;rounded=0;orthogonalLoop=1;jettySize=auto;html=1;" parent="1" source="3" target="4" edge="1"><mxGeometry relative="1" as="geometry"/></mxCell><mxCell id="32" style="edgeStyle=orthogonalEdgeStyle;rounded=0;orthogonalLoop=1;jettySize=auto;html=1;entryX=0.5;entryY=0;entryDx=0;entryDy=0;exitX=0;exitY=0.5;exitDx=0;exitDy=0;" edge="1" parent="1" source="3" target="31"><mxGeometry relative="1" as="geometry"><Array as="points"><mxPoint x="200" y="100"/></Array></mxGeometry></mxCell><mxCell id="3" value="Display" style="rounded=0;whiteSpace=wrap;html=1;fillColor=#008a00;strokeColor=#005700;fontColor=#ffffff;" parent="1" vertex="1"><mxGeometry x="250" y="70" width="120" height="60" as="geometry"/></mxCell><mxCell id="13" style="edgeStyle=orthogonalEdgeStyle;rounded=0;orthogonalLoop=1;jettySize=auto;html=1;entryX=0.5;entryY=0;entryDx=0;entryDy=0;" parent="1" source="4" target="12" edge="1"><mxGeometry relative="1" as="geometry"><mxPoint x="310" y="340" as="targetPoint"/></mxGeometry></mxCell><mxCell id="21" style="edgeStyle=orthogonalEdgeStyle;rounded=0;orthogonalLoop=1;jettySize=auto;html=1;entryX=0.5;entryY=0;entryDx=0;entryDy=0;exitX=1;exitY=0.5;exitDx=0;exitDy=0;" parent="1" source="4" target="14" edge="1"><mxGeometry relative="1" as="geometry"/></mxCell><mxCell id="22" style="edgeStyle=orthogonalEdgeStyle;rounded=0;orthogonalLoop=1;jettySize=auto;html=1;exitX=0;exitY=0.5;exitDx=0;exitDy=0;entryX=0.5;entryY=0;entryDx=0;entryDy=0;" parent="1" source="4" target="15" edge="1"><mxGeometry relative="1" as="geometry"/></mxCell><mxCell id="4" value="World" style="rounded=0;whiteSpace=wrap;html=1;fillColor=#d80073;strokeColor=#A50040;fontColor=#ffffff;" parent="1" vertex="1"><mxGeometry x="250" y="240" width="120" height="60" as="geometry"/></mxCell><mxCell id="5" value="UI Sheet" style="rounded=0;whiteSpace=wrap;html=1;fillColor=#0050ef;strokeColor=#001DBC;fontColor=#ffffff;" parent="1" vertex="1"><mxGeometry x="570" y="240" width="120" height="60" as="geometry"/></mxCell><mxCell id="10" value="Tile" style="rounded=0;whiteSpace=wrap;html=1;fillColor=#f0a30a;strokeColor=#BD7000;fontColor=#000000;" parent="1" vertex="1"><mxGeometry x="250" y="490" width="120" height="60" as="geometry"/></mxCell><mxCell id="19" style="edgeStyle=orthogonalEdgeStyle;rounded=0;orthogonalLoop=1;jettySize=auto;html=1;entryX=1;entryY=0.5;entryDx=0;entryDy=0;" parent="1" source="11" target="10" edge="1"><mxGeometry relative="1" as="geometry"/></mxCell><mxCell id="11" value="OffgridTile" style="rounded=0;whiteSpace=wrap;html=1;fillColor=#e51400;strokeColor=#B20000;fontColor=#ffffff;" parent="1" vertex="1"><mxGeometry x="370" y="420" width="120" height="20" as="geometry"/></mxCell><mxCell id="12" value="Grid" style="rounded=0;whiteSpace=wrap;html=1;fillColor=#a20025;strokeColor=#6F0000;fontColor=#ffffff;" parent="1" vertex="1"><mxGeometry x="250" y="390" width="120" height="30" as="geometry"/></mxCell><mxCell id="14" value="Grid" style="rounded=0;whiteSpace=wrap;html=1;fillColor=#a20025;strokeColor=#6F0000;fontColor=#ffffff;" parent="1" vertex="1"><mxGeometry x="370" y="390" width="120" height="30" as="geometry"/></mxCell><mxCell id="15" value="Grid" style="rounded=0;whiteSpace=wrap;html=1;fillColor=#a20025;strokeColor=#6F0000;fontColor=#ffffff;" parent="1" vertex="1"><mxGeometry x="130" y="390" width="120" height="30" as="geometry"/></mxCell><mxCell id="18" style="edgeStyle=orthogonalEdgeStyle;rounded=0;orthogonalLoop=1;jettySize=auto;html=1;" parent="1" source="16" target="10" edge="1"><mxGeometry relative="1" as="geometry"/></mxCell><mxCell id="16" value="OffgridTile" style="rounded=0;whiteSpace=wrap;html=1;fillColor=#e51400;strokeColor=#B20000;fontColor=#ffffff;" parent="1" vertex="1"><mxGeometry x="250" y="420" width="120" height="20" as="geometry"/></mxCell><mxCell id="20" style="edgeStyle=orthogonalEdgeStyle;rounded=0;orthogonalLoop=1;jettySize=auto;html=1;entryX=0;entryY=0.5;entryDx=0;entryDy=0;" parent="1" source="17" target="10" edge="1"><mxGeometry relative="1" as="geometry"/></mxCell><mxCell id="17" value="OffgridTile" style="rounded=0;whiteSpace=wrap;html=1;fillColor=#e51400;strokeColor=#B20000;fontColor=#ffffff;" parent="1" vertex="1"><mxGeometry x="130" y="420" width="120" height="20" as="geometry"/></mxCell><mxCell id="23" value="Grid position" style="rounded=0;whiteSpace=wrap;html=1;fillColor=#60a917;fontColor=#ffffff;strokeColor=#2D7600;" parent="1" vertex="1"><mxGeometry y="360" width="120" height="60" as="geometry"/></mxCell><mxCell id="24" value="Offgrid tile position" style="rounded=0;whiteSpace=wrap;html=1;fillColor=#d80073;fontColor=#ffffff;strokeColor=#A50040;" parent="1" vertex="1"><mxGeometry y="420" width="120" height="30" as="geometry"/></mxCell><mxCell id="25" value="Tile position" style="rounded=0;whiteSpace=wrap;html=1;fillColor=#76608a;fontColor=#ffffff;strokeColor=#432D57;" parent="1" vertex="1"><mxGeometry y="490" width="120" height="60" as="geometry"/></mxCell><mxCell id="26" value="World position" style="rounded=0;whiteSpace=wrap;html=1;fillColor=#e51400;fontColor=#ffffff;strokeColor=#B20000;" parent="1" vertex="1"><mxGeometry y="240" width="120" height="60" as="geometry"/></mxCell><mxCell id="27" value="Display position" style="rounded=0;whiteSpace=wrap;html=1;fillColor=#e3c800;fontColor=#000000;strokeColor=#B09500;" parent="1" vertex="1"><mxGeometry y="70" width="120" height="60" as="geometry"/></mxCell><mxCell id="29" value="UI sheet position" style="rounded=0;whiteSpace=wrap;html=1;fillColor=#1ba1e2;fontColor=#ffffff;strokeColor=#006EAF;" parent="1" vertex="1"><mxGeometry x="720" y="240" width="120" height="60" as="geometry"/></mxCell><mxCell id="30" value="Focused position" style="rounded=0;whiteSpace=wrap;html=1;fillColor=#F06413;fontColor=#000000;strokeColor=#BD7000;" vertex="1" parent="1"><mxGeometry y="150" width="120" height="60" as="geometry"/></mxCell><mxCell id="31" value="Centered display" style="rounded=0;whiteSpace=wrap;html=1;fillColor=#006300;strokeColor=#005700;fontColor=#ffffff;" vertex="1" parent="1"><mxGeometry x="140" y="150" width="120" height="60" as="geometry"/></mxCell></root></mxGraphModel></diagram></mxfile>